<svg width="3034" height="641" xmlns="http://www.w3.org/2000/svg" xmlns:xlink="http://www.w3.org/1999/xlink" xml:space="preserve" overflow="hidden"><defs><clipPath id="clip0"><rect x="944" y="715" width="3034" height="641"/></clipPath></defs><g clip-path="url(#clip0)" transform="translate(-944 -715)"><rect x="1213.5" y="936.5" width="263" height="241" stroke="#000000" stroke-width="4.58333" stroke-linecap="butt" stroke-linejoin="miter" stroke-miterlimit="8" stroke-opacity="1" fill="none"/><rect x="1476.5" y="936.5" width="263" height="241" stroke="#000000" stroke-width="4.58333" stroke-linecap="butt" stroke-linejoin="miter" stroke-miterlimit="8" stroke-opacity="1" fill="none"/><rect x="1739.5" y="936.5" width="263" height="241" stroke="#000000" stroke-width="4.58333" stroke-linecap="butt" stroke-linejoin="miter" stroke-miterlimit="8" stroke-opacity="1" fill="none"/><rect x="2002.5" y="936.5" width="263" height="241" stroke="#000000" stroke-width="4.58333" stroke-linecap="butt" stroke-linejoin="miter" stroke-miterlimit="8" stroke-opacity="1" fill="none"/><rect x="2265.5" y="936.5" width="264" height="241" stroke="#000000" stroke-width="4.58333" stroke-linecap="butt" stroke-linejoin="miter" stroke-miterlimit="8" stroke-opacity="1" fill="none"/><rect x="2529.5" y="936.5" width="263" height="241" stroke="#000000" stroke-width="4.58333" stroke-linecap="butt" stroke-linejoin="miter" stroke-miterlimit="8" stroke-opacity="1" fill="none"/><rect x="2792.5" y="936.5" width="263" height="241" stroke="#000000" stroke-width="4.58333" stroke-linecap="butt" stroke-linejoin="miter" stroke-miterlimit="8" stroke-opacity="1" fill="none"/><rect x="3055.5" y="936.5" width="263" height="241" stroke="#000000" stroke-width="4.58333" stroke-linecap="butt" stroke-linejoin="miter" stroke-miterlimit="8" stroke-opacity="1" fill="none"/><rect x="950.5" y="936.5" width="263" height="241" stroke="#000000" stroke-width="4.58333" stroke-linecap="butt" stroke-linejoin="miter" stroke-miterlimit="8" stroke-dasharray="18.3333 13.75" stroke-opacity="1" fill="none"/><rect x="3318.5" y="936.5" width="263" height="241" stroke="#000000" stroke-width="4.58333" stroke-linecap="butt" stroke-linejoin="miter" stroke-miterlimit="8" stroke-opacity="1" fill="none"/><path d="M1080.5 1073.5C1080.5 1064.66 1087.66 1057.5 1096.5 1057.5 1105.34 1057.5 1112.5 1064.66 1112.5 1073.5 1112.5 1082.34 1105.34 1089.5 1096.5 1089.5 1087.66 1089.5 1080.5 1082.34 1080.5 1073.5Z" stroke="#000000" stroke-width="4.58333" stroke-linecap="butt" stroke-linejoin="miter" stroke-miterlimit="8" stroke-opacity="1" fill="#000000" fill-rule="evenodd" fill-opacity="1"/><path d="M0 16C-4.07402e-15 7.16344 7.16344 0 16 0 24.8365-4.07402e-15 32 7.16344 32 16 32 24.8365 24.8365 32 16 32 7.16344 32-6.11103e-15 24.8365 0 16Z" stroke="#000000" stroke-width="4.58333" stroke-linecap="butt" stroke-linejoin="miter" stroke-miterlimit="8" stroke-opacity="1" fill="#000000" fill-rule="evenodd" fill-opacity="1" transform="matrix(-1 0 0 1 1359.5 1058.5)"/><path d="M0 16C-4.07402e-15 7.16344 7.16344 0 16 0 24.8365-4.07402e-15 32 7.16344 32 16 32 24.8365 24.8365 32 16 32 7.16344 32-6.11103e-15 24.8365 0 16Z" stroke="#000000" stroke-width="4.58333" stroke-linecap="butt" stroke-linejoin="miter" stroke-miterlimit="8" stroke-opacity="1" fill="#000000" fill-rule="evenodd" fill-opacity="1" transform="matrix(-1 0 0 1 1622.5 1057.5)"/><path d="M0 16C-4.07402e-15 7.16344 7.16344 0 16 0 24.8365-4.07402e-15 32 7.16344 32 16 32 24.8365 24.8365 32 16 32 7.16344 32-6.11103e-15 24.8365 0 16Z" stroke="#000000" stroke-width="4.58333" stroke-linecap="butt" stroke-linejoin="miter" stroke-miterlimit="8" stroke-opacity="1" fill="#000000" fill-rule="evenodd" fill-opacity="1" transform="matrix(-1 0 0 1 1885.5 1057.5)"/><path d="M0 16C-4.20134e-15 7.16344 7.3873 0 16.5 0 25.6127-4.07402e-15 33 7.16344 33 16 33 24.8365 25.6127 32 16.5 32 7.3873 32-6.30201e-15 24.8365 0 16Z" stroke="#000000" stroke-width="4.58333" stroke-linecap="butt" stroke-linejoin="miter" stroke-miterlimit="8" stroke-opacity="1" fill="#000000" fill-rule="evenodd" fill-opacity="1" transform="matrix(-1 0 0 1 2152.5 1057.5)"/><path d="M0 16C-4.20134e-15 7.16344 7.3873 0 16.5 0 25.6127-4.07402e-15 33 7.16344 33 16 33 24.8365 25.6127 32 16.5 32 7.3873 32-6.30201e-15 24.8365 0 16Z" stroke="#000000" stroke-width="4.58333" stroke-linecap="butt" stroke-linejoin="miter" stroke-miterlimit="8" stroke-opacity="1" fill="#000000" fill-rule="evenodd" fill-opacity="1" transform="matrix(-1 0 0 1 2412.5 1057.5)"/><path d="M0 16C-4.20134e-15 7.16344 7.3873 0 16.5 0 25.6127-4.07402e-15 33 7.16344 33 16 33 24.8365 25.6127 32 16.5 32 7.3873 32-6.30201e-15 24.8365 0 16Z" stroke="#000000" stroke-width="4.58333" stroke-linecap="butt" stroke-linejoin="miter" stroke-miterlimit="8" stroke-opacity="1" fill="#000000" fill-rule="evenodd" fill-opacity="1" transform="matrix(-1 0 0 1 2675.5 1057.5)"/><path d="M0 16C-4.07402e-15 7.16344 7.16344 0 16 0 24.8365-4.07402e-15 32 7.16344 32 16 32 24.8365 24.8365 32 16 32 7.16344 32-6.11103e-15 24.8365 0 16Z" stroke="#000000" stroke-width="4.58333" stroke-linecap="butt" stroke-linejoin="miter" stroke-miterlimit="8" stroke-opacity="1" fill="#000000" fill-rule="evenodd" fill-opacity="1" transform="matrix(-1 0 0 1 2941.5 1057.5)"/><path d="M0 16C-4.20134e-15 7.16344 7.3873 0 16.5 0 25.6127-4.07402e-15 33 7.16344 33 16 33 24.8365 25.6127 32 16.5 32 7.3873 32-6.30201e-15 24.8365 0 16Z" stroke="#000000" stroke-width="4.58333" stroke-linecap="butt" stroke-linejoin="miter" stroke-miterlimit="8" stroke-opacity="1" fill="#000000" fill-rule="evenodd" fill-opacity="1" transform="matrix(-1 0 0 1 3201.5 1057.5)"/><path d="M0 16C-4.07407e-15 7.16344 7.16352 0 16.0002 0 24.8368-4.07402e-15 32.0003 7.16344 32.0003 16 32.0003 24.8365 24.8368 32 16.0002 32 7.16352 32-6.1111e-15 24.8365 0 16Z" stroke="#000000" stroke-width="4.58333" stroke-linecap="butt" stroke-linejoin="miter" stroke-miterlimit="8" stroke-opacity="1" fill="#000000" fill-rule="evenodd" fill-opacity="1" transform="matrix(-1 0 0 1 3464.5 1057.5)"/><rect x="3581.5" y="936.5" width="263" height="241" stroke="#000000" stroke-width="4.58333" stroke-linecap="butt" stroke-linejoin="miter" stroke-miterlimit="8" stroke-opacity="1" fill="none"/><path d="M0 16C-4.07402e-15 7.16344 7.16344 0 16 0 24.8365-4.07402e-15 32 7.16344 32 16 32 24.8365 24.8365 32 16 32 7.16344 32-6.11103e-15 24.8365 0 16Z" stroke="#000000" stroke-width="4.58333" stroke-linecap="butt" stroke-linejoin="miter" stroke-miterlimit="8" stroke-opacity="1" fill="#000000" fill-rule="evenodd" fill-opacity="1" transform="matrix(-1 0 0 1 3727.5 1057.5)"/><text fill="#000000" fill-opacity="1" font-family="Arial,Arial_MSFontService,sans-serif" font-style="normal" font-variant="normal" font-weight="400" font-stretch="normal" font-size="55" text-anchor="start" direction="ltr" writing-mode="lr-tb" unicode-bidi="normal" text-decoration="none" transform="matrix(1 0 0 1 1021.54 1147)">mirror</text><text fill="#000000" fill-opacity="1" font-family="Arial,Arial_MSFontService,sans-serif" font-style="normal" font-variant="normal" font-weight="400" font-stretch="normal" font-size="55" text-anchor="start" direction="ltr" writing-mode="lr-tb" unicode-bidi="normal" text-decoration="none" transform="matrix(1 0 0 1 1330.03 1153)">1</text><text fill="#000000" fill-opacity="1" font-family="Arial,Arial_MSFontService,sans-serif" font-style="normal" font-variant="normal" font-weight="400" font-stretch="normal" font-size="55" text-anchor="start" direction="ltr" writing-mode="lr-tb" unicode-bidi="normal" text-decoration="none" transform="matrix(1 0 0 1 1597.56 1153)">2</text><text fill="#000000" fill-opacity="1" font-family="Arial,Arial_MSFontService,sans-serif" font-style="normal" font-variant="normal" font-weight="400" font-stretch="normal" font-size="55" text-anchor="start" direction="ltr" writing-mode="lr-tb" unicode-bidi="normal" text-decoration="none" transform="matrix(1 0 0 1 1856.99 1153)">3</text><text fill="#000000" fill-opacity="1" font-family="Arial,Arial_MSFontService,sans-serif" font-style="normal" font-variant="normal" font-weight="400" font-stretch="normal" font-size="55" text-anchor="start" direction="ltr" writing-mode="lr-tb" unicode-bidi="normal" text-decoration="none" transform="matrix(1 0 0 1 2123.78 1159)">4</text><text fill="#000000" fill-opacity="1" font-family="Arial,Arial_MSFontService,sans-serif" font-style="normal" font-variant="normal" font-weight="400" font-stretch="normal" font-size="55" text-anchor="start" direction="ltr" writing-mode="lr-tb" unicode-bidi="normal" text-decoration="none" transform="matrix(1 0 0 1 2388.03 1159)">5</text><text fill="#000000" fill-opacity="1" font-family="Arial,Arial_MSFontService,sans-serif" font-style="normal" font-variant="normal" font-weight="400" font-stretch="normal" font-size="55" text-anchor="start" direction="ltr" writing-mode="lr-tb" unicode-bidi="normal" text-decoration="none" transform="matrix(1 0 0 1 2645.57 1162)">6</text><text fill="#000000" fill-opacity="1" font-family="Arial,Arial_MSFontService,sans-serif" font-style="normal" font-variant="normal" font-weight="400" font-stretch="normal" font-size="55" text-anchor="start" direction="ltr" writing-mode="lr-tb" unicode-bidi="normal" text-decoration="none" transform="matrix(1 0 0 1 2908.88 1159)">7</text><text fill="#000000" fill-opacity="1" font-family="Arial,Arial_MSFontService,sans-serif" font-style="normal" font-variant="normal" font-weight="400" font-stretch="normal" font-size="55" text-anchor="start" direction="ltr" writing-mode="lr-tb" unicode-bidi="normal" text-decoration="none" transform="matrix(1 0 0 1 3176.21 1153)">8</text><text fill="#000000" fill-opacity="1" font-family="Arial,Arial_MSFontService,sans-serif" font-style="normal" font-variant="normal" font-weight="400" font-stretch="normal" font-size="55" text-anchor="start" direction="ltr" writing-mode="lr-tb" unicode-bidi="normal" text-decoration="none" transform="matrix(1 0 0 1 3437.27 1148)">9</text><text fill="#000000" fill-opacity="1" font-family="Arial,Arial_MSFontService,sans-serif" font-style="normal" font-variant="normal" font-weight="400" font-stretch="normal" font-size="55" text-anchor="start" direction="ltr" writing-mode="lr-tb" unicode-bidi="normal" text-decoration="none" transform="matrix(1 0 0 1 3682.22 1147)">10</text><text fill="#000000" fill-opacity="1" font-family="Cambria Math,Cambria Math_MSFontService,sans-serif" font-style="normal" font-variant="normal" font-weight="400" font-stretch="normal" font-size="55" text-anchor="start" direction="ltr" writing-mode="lr-tb" unicode-bidi="normal" text-decoration="none" transform="translate(1195.83 909)">𝜙</text><text fill="#000000" fill-opacity="1" font-family="Cambria Math,Cambria Math_MSFontService,sans-serif" font-style="normal" font-variant="normal" font-weight="400" font-stretch="normal" font-size="40" text-anchor="start" direction="ltr" writing-mode="lr-tb" unicode-bidi="normal" text-decoration="none" transform="translate(1233.64 920)">0</text><text fill="#000000" fill-opacity="1" font-family="Cambria Math,Cambria Math_MSFontService,sans-serif" font-style="normal" font-variant="normal" font-weight="400" font-stretch="normal" font-size="55" text-anchor="start" direction="ltr" writing-mode="lr-tb" unicode-bidi="normal" text-decoration="none" transform="translate(3812.52 908)">𝜙</text><text fill="#000000" fill-opacity="1" font-family="Cambria Math,Cambria Math_MSFontService,sans-serif" font-style="normal" font-variant="normal" font-weight="400" font-stretch="normal" font-size="40" text-anchor="start" direction="ltr" writing-mode="lr-tb" unicode-bidi="normal" text-decoration="none" transform="translate(3850.34 920)">𝐿</text><path d="M0 0 0.000360892 250.934" stroke="#000000" stroke-width="4.58333" stroke-linecap="square" stroke-linejoin="miter" stroke-miterlimit="8" stroke-dasharray="13.75 4.58333" stroke-opacity="1" fill="none" fill-rule="evenodd" transform="matrix(1 0 0 -1 1096.5 1057.43)"/><path d="M0 0 0.000360892 250.934" stroke="#000000" stroke-width="4.58333" stroke-linecap="square" stroke-linejoin="miter" stroke-miterlimit="8" stroke-dasharray="13.75 4.58333" stroke-opacity="1" fill="none" fill-rule="evenodd" transform="matrix(1 0 0 -1 1343.5 1057.43)"/><path d="M0 0 0.000360892 250.934" stroke="#000000" stroke-width="4.58333" stroke-linecap="square" stroke-linejoin="miter" stroke-miterlimit="8" stroke-dasharray="13.75 4.58333" stroke-opacity="1" fill="none" fill-rule="evenodd" transform="matrix(1 0 0 -1 1604.5 1063.43)"/><path d="M0 0 0.000360892 250.934" stroke="#000000" stroke-width="4.58333" stroke-linecap="square" stroke-linejoin="miter" stroke-miterlimit="8" stroke-dasharray="13.75 4.58333" stroke-opacity="1" fill="none" fill-rule="evenodd" transform="matrix(1 0 0 -1 1871.5 1056.43)"/><path d="M0 0 0.000360892 250.934" stroke="#000000" stroke-width="4.58333" stroke-linecap="square" stroke-linejoin="miter" stroke-miterlimit="8" stroke-dasharray="13.75 4.58333" stroke-opacity="1" fill="none" fill-rule="evenodd" transform="matrix(1 0 0 -1 2134.5 1056.43)"/><path d="M0 0 0.000360892 250.934" stroke="#000000" stroke-width="4.58333" stroke-linecap="square" stroke-linejoin="miter" stroke-miterlimit="8" stroke-dasharray="13.75 4.58333" stroke-opacity="1" fill="none" fill-rule="evenodd" transform="matrix(1 0 0 -1 2395.5 1056.43)"/><path d="M0 0 0.000360892 250.934" stroke="#000000" stroke-width="4.58333" stroke-linecap="square" stroke-linejoin="miter" stroke-miterlimit="8" stroke-dasharray="13.75 4.58333" stroke-opacity="1" fill="none" fill-rule="evenodd" transform="matrix(1 0 0 -1 2655.5 1063.43)"/><path d="M0 0 0.000360892 250.934" stroke="#000000" stroke-width="4.58333" stroke-linecap="square" stroke-linejoin="miter" stroke-miterlimit="8" stroke-dasharray="13.75 4.58333" stroke-opacity="1" fill="none" fill-rule="evenodd" transform="matrix(1 0 0 -1 2923.5 1056.43)"/><path d="M0 0 0.000360892 250.934" stroke="#000000" stroke-width="4.58333" stroke-linecap="square" stroke-linejoin="miter" stroke-miterlimit="8" stroke-dasharray="13.75 4.58333" stroke-opacity="1" fill="none" fill-rule="evenodd" transform="matrix(1 0 0 -1 3185.5 1062.43)"/><path d="M0 0 0.000360892 250.934" stroke="#000000" stroke-width="4.58333" stroke-linecap="square" stroke-linejoin="miter" stroke-miterlimit="8" stroke-dasharray="13.75 4.58333" stroke-opacity="1" fill="none" fill-rule="evenodd" transform="matrix(1 0 0 -1 3448.5 1062.43)"/><path d="M0 0 0.000360892 250.934" stroke="#000000" stroke-width="4.58333" stroke-linecap="square" stroke-linejoin="miter" stroke-miterlimit="8" stroke-dasharray="13.75 4.58333" stroke-opacity="1" fill="none" fill-rule="evenodd" transform="matrix(1 0 0 -1 3710.5 1056.43)"/><text fill="#000000" fill-opacity="1" font-family="Cambria Math,Cambria Math_MSFontService,sans-serif" font-style="normal" font-variant="normal" font-weight="400" font-stretch="normal" font-size="55" text-anchor="start" direction="ltr" writing-mode="lr-tb" unicode-bidi="normal" text-decoration="none" transform="translate(1051.75 784)">𝜙</text><text fill="#000000" fill-opacity="1" font-family="Cambria Math,Cambria Math_MSFontService,sans-serif" font-style="normal" font-variant="normal" font-weight="400" font-stretch="normal" font-size="40" text-anchor="start" direction="ltr" writing-mode="lr-tb" unicode-bidi="normal" text-decoration="none" transform="translate(1089.56 796)">𝑚𝑖𝑟𝑟𝑜𝑟</text><text fill="#000000" fill-opacity="1" font-family="Cambria Math,Cambria Math_MSFontService,sans-serif" font-style="normal" font-variant="normal" font-weight="400" font-stretch="normal" font-size="55" text-anchor="start" direction="ltr" writing-mode="lr-tb" unicode-bidi="normal" text-decoration="none" transform="translate(1323.02 785)">𝜙</text><text fill="#000000" fill-opacity="1" font-family="Cambria Math,Cambria Math_MSFontService,sans-serif" font-style="normal" font-variant="normal" font-weight="400" font-stretch="normal" font-size="40" text-anchor="start" direction="ltr" writing-mode="lr-tb" unicode-bidi="normal" text-decoration="none" transform="translate(1359.55 797)">1</text><text fill="#000000" fill-opacity="1" font-family="Cambria Math,Cambria Math_MSFontService,sans-serif" font-style="normal" font-variant="normal" font-weight="400" font-stretch="normal" font-size="55" text-anchor="start" direction="ltr" writing-mode="lr-tb" unicode-bidi="normal" text-decoration="none" transform="translate(1578.73 800)">𝜙</text><text fill="#000000" fill-opacity="1" font-family="Cambria Math,Cambria Math_MSFontService,sans-serif" font-style="normal" font-variant="normal" font-weight="400" font-stretch="normal" font-size="40" text-anchor="start" direction="ltr" writing-mode="lr-tb" unicode-bidi="normal" text-decoration="none" transform="translate(1616.55 811)">2</text><text fill="#000000" fill-opacity="1" font-family="Cambria Math,Cambria Math_MSFontService,sans-serif" font-style="normal" font-variant="normal" font-weight="400" font-stretch="normal" font-size="55" text-anchor="start" direction="ltr" writing-mode="lr-tb" unicode-bidi="normal" text-decoration="none" transform="translate(1845.56 784)">𝜙</text><text fill="#000000" fill-opacity="1" font-family="Cambria Math,Cambria Math_MSFontService,sans-serif" font-style="normal" font-variant="normal" font-weight="400" font-stretch="normal" font-size="40" text-anchor="start" direction="ltr" writing-mode="lr-tb" unicode-bidi="normal" text-decoration="none" transform="translate(1883.37 796)">3</text><text fill="#000000" fill-opacity="1" font-family="Cambria Math,Cambria Math_MSFontService,sans-serif" font-style="normal" font-variant="normal" font-weight="400" font-stretch="normal" font-size="55" text-anchor="start" direction="ltr" writing-mode="lr-tb" unicode-bidi="normal" text-decoration="none" transform="translate(2111.93 781)">𝜙</text><text fill="#000000" fill-opacity="1" font-family="Cambria Math,Cambria Math_MSFontService,sans-serif" font-style="normal" font-variant="normal" font-weight="400" font-stretch="normal" font-size="40" text-anchor="start" direction="ltr" writing-mode="lr-tb" unicode-bidi="normal" text-decoration="none" transform="translate(2147.59 793)">4</text><text fill="#000000" fill-opacity="1" font-family="Cambria Math,Cambria Math_MSFontService,sans-serif" font-style="normal" font-variant="normal" font-weight="400" font-stretch="normal" font-size="55" text-anchor="start" direction="ltr" writing-mode="lr-tb" unicode-bidi="normal" text-decoration="none" transform="translate(2371.28 781)">𝜙</text><text fill="#000000" fill-opacity="1" font-family="Cambria Math,Cambria Math_MSFontService,sans-serif" font-style="normal" font-variant="normal" font-weight="400" font-stretch="normal" font-size="40" text-anchor="start" direction="ltr" writing-mode="lr-tb" unicode-bidi="normal" text-decoration="none" transform="translate(2409.09 792)">5</text><text fill="#000000" fill-opacity="1" font-family="Cambria Math,Cambria Math_MSFontService,sans-serif" font-style="normal" font-variant="normal" font-weight="400" font-stretch="normal" font-size="55" text-anchor="start" direction="ltr" writing-mode="lr-tb" unicode-bidi="normal" text-decoration="none" transform="translate(2623.54 781)">𝜙</text><text fill="#000000" fill-opacity="1" font-family="Cambria Math,Cambria Math_MSFontService,sans-serif" font-style="normal" font-variant="normal" font-weight="400" font-stretch="normal" font-size="40" text-anchor="start" direction="ltr" writing-mode="lr-tb" unicode-bidi="normal" text-decoration="none" transform="translate(2661.35 792)">6</text><text fill="#000000" fill-opacity="1" font-family="Cambria Math,Cambria Math_MSFontService,sans-serif" font-style="normal" font-variant="normal" font-weight="400" font-stretch="normal" font-size="55" text-anchor="start" direction="ltr" writing-mode="lr-tb" unicode-bidi="normal" text-decoration="none" transform="translate(2891.93 768)">𝜙</text><text fill="#000000" fill-opacity="1" font-family="Cambria Math,Cambria Math_MSFontService,sans-serif" font-style="normal" font-variant="normal" font-weight="400" font-stretch="normal" font-size="40" text-anchor="start" direction="ltr" writing-mode="lr-tb" unicode-bidi="normal" text-decoration="none" transform="translate(2929.74 779)">7</text><text fill="#000000" fill-opacity="1" font-family="Cambria Math,Cambria Math_MSFontService,sans-serif" font-style="normal" font-variant="normal" font-weight="400" font-stretch="normal" font-size="55" text-anchor="start" direction="ltr" writing-mode="lr-tb" unicode-bidi="normal" text-decoration="none" transform="translate(3153.38 781)">𝜙</text><text fill="#000000" fill-opacity="1" font-family="Cambria Math,Cambria Math_MSFontService,sans-serif" font-style="normal" font-variant="normal" font-weight="400" font-stretch="normal" font-size="40" text-anchor="start" direction="ltr" writing-mode="lr-tb" unicode-bidi="normal" text-decoration="none" transform="translate(3191.19 792)">8</text><text fill="#000000" fill-opacity="1" font-family="Cambria Math,Cambria Math_MSFontService,sans-serif" font-style="normal" font-variant="normal" font-weight="400" font-stretch="normal" font-size="55" text-anchor="start" direction="ltr" writing-mode="lr-tb" unicode-bidi="normal" text-decoration="none" transform="translate(3420.52 776)">𝜙</text><text fill="#000000" fill-opacity="1" font-family="Cambria Math,Cambria Math_MSFontService,sans-serif" font-style="normal" font-variant="normal" font-weight="400" font-stretch="normal" font-size="40" text-anchor="start" direction="ltr" writing-mode="lr-tb" unicode-bidi="normal" text-decoration="none" transform="translate(3458.33 787)">9</text><text fill="#000000" fill-opacity="1" font-family="Cambria Math,Cambria Math_MSFontService,sans-serif" font-style="normal" font-variant="normal" font-weight="400" font-stretch="normal" font-size="55" text-anchor="start" direction="ltr" writing-mode="lr-tb" unicode-bidi="normal" text-decoration="none" transform="translate(3679.07 776)">𝜙</text><text fill="#000000" fill-opacity="1" font-family="Cambria Math,Cambria Math_MSFontService,sans-serif" font-style="normal" font-variant="normal" font-weight="400" font-stretch="normal" font-size="40" text-anchor="start" direction="ltr" writing-mode="lr-tb" unicode-bidi="normal" text-decoration="none" transform="translate(3715.6 787)">10</text><path d="M3710.5 1288.21 3859.53 1288.21 3859.53 1292.79 3710.5 1292.79ZM3854.95 1276.75 3882.45 1290.5 3854.95 1304.25Z" fill="#000000" fill-rule="nonzero" fill-opacity="1"/><text fill="#000000" fill-opacity="1" font-family="Arial,Arial_MSFontService,sans-serif" font-style="normal" font-variant="normal" font-weight="400" font-stretch="normal" font-size="55" text-anchor="start" direction="ltr" writing-mode="lr-tb" unicode-bidi="normal" text-decoration="none" transform="matrix(1 0 0 1 3915.19 1310)">x</text></g></svg>